ISO-10303-21;
HEADER;
/* Generated by software containing ST-Developer
 * from STEP Tools, Inc. (www.steptools.com) 
 */

FILE_DESCRIPTION(
/* description */ (''),
/* implementation_level */ '2;1');

FILE_NAME(
/* name */ 'rocket cd nozzle.step',
/* time_stamp */ '2026-03-21T09:26:58+05:30',
/* author */ (''),
/* organization */ (''),
/* preprocessor_version */ 'ST-DEVELOPER v20.1',
/* originating_system */ 'Autodesk Translation Framework v14.24.0.0',
/* authorisation */ '');

FILE_SCHEMA (('AUTOMOTIVE_DESIGN { 1 0 10303 214 3 1 1 }'));
ENDSEC;

DATA;
#10=MECHANICAL_DESIGN_GEOMETRIC_PRESENTATION_REPRESENTATION('',(#13),#953);
#11=SHAPE_REPRESENTATION_RELATIONSHIP('SRR','None',#960,#12);
#12=ADVANCED_BREP_SHAPE_REPRESENTATION('',(#14),#952);
#13=STYLED_ITEM('',(#970),#14);
#14=MANIFOLD_SOLID_BREP('Body1',#322);
#15=(
BOUNDED_CURVE()
B_SPLINE_CURVE(5,(#790,#791,#792,#793,#794,#795,#796,#797,#798,#799,#800,
#801,#802,#803,#804),.UNSPECIFIED.,.F.,.F.)
B_SPLINE_CURVE_WITH_KNOTS((6,1,1,1,1,1,1,1,1,1,6),(0.,0.1,0.2,0.3,0.4,0.5,
0.6,0.7,0.8,0.9,1.),.UNSPECIFIED.)
CURVE()
GEOMETRIC_REPRESENTATION_ITEM()
RATIONAL_B_SPLINE_CURVE((1.,1.,1.,1.,1.,1.,1.,1.,1.,1.,1.,1.,1.,1.,1.))
REPRESENTATION_ITEM('')
);
#16=(
BOUNDED_SURFACE()
B_SPLINE_SURFACE(5,2,((#654,#655,#656,#657,#658,#659,#660,#661,#662),(#663,
#664,#665,#666,#667,#668,#669,#670,#671),(#672,#673,#674,#675,#676,#677,
#678,#679,#680),(#681,#682,#683,#684,#685,#686,#687,#688,#689),(#690,#691,
#692,#693,#694,#695,#696,#697,#698),(#699,#700,#701,#702,#703,#704,#705,
#706,#707),(#708,#709,#710,#711,#712,#713,#714,#715,#716),(#717,#718,#719,
#720,#721,#722,#723,#724,#725),(#726,#727,#728,#729,#730,#731,#732,#733,
#734),(#735,#736,#737,#738,#739,#740,#741,#742,#743),(#744,#745,#746,#747,
#748,#749,#750,#751,#752),(#753,#754,#755,#756,#757,#758,#759,#760,#761),
(#762,#763,#764,#765,#766,#767,#768,#769,#770),(#771,#772,#773,#774,#775,
#776,#777,#778,#779),(#780,#781,#782,#783,#784,#785,#786,#787,#788)),
 .UNSPECIFIED.,.F.,.T.,.F.)
B_SPLINE_SURFACE_WITH_KNOTS((6,1,1,1,1,1,1,1,1,1,6),(3,2,2,2,3),(-1.,-0.9,
-0.8,-0.7,-0.6,-0.5,-0.4,-0.3,-0.2,-0.1,0.),(0.,1.5707963267949,3.14159265358979,
4.71238898038469,6.28318530717959),.UNSPECIFIED.)
GEOMETRIC_REPRESENTATION_ITEM()
RATIONAL_B_SPLINE_SURFACE(((1.,0.707106781186548,1.,0.707106781186548,1.,
0.707106781186548,1.,0.707106781186548,1.),(1.,0.707106781186548,1.,0.707106781186548,
1.,0.707106781186548,1.,0.707106781186548,1.),(1.,0.707106781186548,1.,
0.707106781186548,1.,0.707106781186548,1.,0.707106781186548,1.),(1.,0.707106781186548,
1.,0.707106781186548,1.,0.707106781186548,1.,0.707106781186548,1.),(1.,
0.707106781186548,1.,0.707106781186548,1.,0.707106781186548,1.,0.707106781186548,
1.),(1.,0.707106781186548,1.,0.707106781186548,1.,0.707106781186548,1.,
0.707106781186548,1.),(1.,0.707106781186548,1.,0.707106781186548,1.,0.707106781186548,
1.,0.707106781186548,1.),(1.,0.707106781186548,1.,0.707106781186548,1.,
0.707106781186548,1.,0.707106781186548,1.),(1.,0.707106781186548,1.,0.707106781186548,
1.,0.707106781186548,1.,0.707106781186548,1.),(1.,0.707106781186548,1.,
0.707106781186548,1.,0.707106781186548,1.,0.707106781186548,1.),(1.,0.707106781186548,
1.,0.707106781186548,1.,0.707106781186548,1.,0.707106781186548,1.),(1.,
0.707106781186548,1.,0.707106781186548,1.,0.707106781186548,1.,0.707106781186548,
1.),(1.,0.707106781186548,1.,0.707106781186548,1.,0.707106781186548,1.,
0.707106781186548,1.),(1.,0.707106781186548,1.,0.707106781186548,1.,0.707106781186548,
1.,0.707106781186548,1.),(1.,0.707106781186548,1.,0.707106781186548,1.,
0.707106781186548,1.,0.707106781186548,1.)))
REPRESENTATION_ITEM('')
SURFACE()
);
#17=(
BOUNDED_SURFACE()
B_SPLINE_SURFACE(3,2,((#814,#815,#816,#817,#818,#819,#820,#821,#822),(#823,
#824,#825,#826,#827,#828,#829,#830,#831),(#832,#833,#834,#835,#836,#837,
#838,#839,#840),(#841,#842,#843,#844,#845,#846,#847,#848,#849),(#850,#851,
#852,#853,#854,#855,#856,#857,#858),(#859,#860,#861,#862,#863,#864,#865,
#866,#867),(#868,#869,#870,#871,#872,#873,#874,#875,#876),(#877,#878,#879,
#880,#881,#882,#883,#884,#885),(#886,#887,#888,#889,#890,#891,#892,#893,
#894),(#895,#896,#897,#898,#899,#900,#901,#902,#903),(#904,#905,#906,#907,
#908,#909,#910,#911,#912),(#913,#914,#915,#916,#917,#918,#919,#920,#921),
(#922,#923,#924,#925,#926,#927,#928,#929,#930)),.UNSPECIFIED.,.F.,.T.,.F.)
B_SPLINE_SURFACE_WITH_KNOTS((4,3,3,3,4),(3,2,2,2,3),(0.,0.267840311448197,
0.54164360524981,0.854230804284348,1.),(0.,1.5707963267949,3.14159265358979,
4.71238898038469,6.28318530717959),.UNSPECIFIED.)
GEOMETRIC_REPRESENTATION_ITEM()
RATIONAL_B_SPLINE_SURFACE(((1.,0.707106781186548,1.,0.707106781186548,1.,
0.707106781186548,1.,0.707106781186548,1.),(1.,0.707106781186548,1.,0.707106781186548,
1.,0.707106781186548,1.,0.707106781186548,1.),(1.,0.707106781186548,1.,
0.707106781186548,1.,0.707106781186548,1.,0.707106781186548,1.),(1.,0.707106781186548,
1.,0.707106781186548,1.,0.707106781186548,1.,0.707106781186548,1.),(1.,
0.707106781186548,1.,0.707106781186548,1.,0.707106781186548,1.,0.707106781186548,
1.),(1.,0.707106781186548,1.,0.707106781186548,1.,0.707106781186548,1.,
0.707106781186548,1.),(1.,0.707106781186548,1.,0.707106781186548,1.,0.707106781186548,
1.,0.707106781186548,1.),(1.,0.707106781186548,1.,0.707106781186548,1.,
0.707106781186548,1.,0.707106781186548,1.),(1.,0.707106781186548,1.,0.707106781186548,
1.,0.707106781186548,1.,0.707106781186548,1.),(1.,0.707106781186548,1.,
0.707106781186548,1.,0.707106781186548,1.,0.707106781186548,1.),(1.,0.707106781186548,
1.,0.707106781186548,1.,0.707106781186548,1.,0.707106781186548,1.),(1.,
0.707106781186548,1.,0.707106781186548,1.,0.707106781186548,1.,0.707106781186548,
1.),(1.,0.707106781186548,1.,0.707106781186548,1.,0.707106781186548,1.,
0.707106781186548,1.)))
REPRESENTATION_ITEM('')
SURFACE()
);
#18=TOROIDAL_SURFACE('',#350,41.1098323766951,9.99999999999883);
#19=TOROIDAL_SURFACE('',#359,41.1098323766951,19.9999999999988);
#20=TOROIDAL_SURFACE('',#364,55.635,20.);
#21=TOROIDAL_SURFACE('',#375,55.635,30.);
#22=CONICAL_SURFACE('',#347,39.6052867291591,0.501810870446968);
#23=CONICAL_SURFACE('',#353,51.1071400182008,3.26996251139594E-5);
#24=CONICAL_SURFACE('',#355,56.1044476623809,1.57076362717192);
#25=CONICAL_SURFACE('',#357,61.1071400128545,3.26996251139594E-5);
#26=CONICAL_SURFACE('',#362,48.372416188347,0.501810870446967);
#27=CONICAL_SURFACE('',#370,52.8701736300273,1.56246251536783);
#28=FACE_BOUND('',#66,.T.);
#29=FACE_BOUND('',#70,.T.);
#30=FACE_BOUND('',#73,.T.);
#31=B_SPLINE_CURVE_WITH_KNOTS('',3,(#483,#484,#485,#486,#487,#488,#489,
#490,#491,#492,#493,#494,#495,#496,#497,#498,#499,#500,#501),
 .UNSPECIFIED.,.F.,.F.,(4,2,2,2,3,2,2,2,4),(-0.454778335754848,-0.341083763240083,
-0.227389190725318,-0.113694595362659,0.,0.113694350777021,0.227388701554043,
0.34108302941445,0.454777357274857),.UNSPECIFIED.);
#32=B_SPLINE_CURVE_WITH_KNOTS('',3,(#503,#504,#505,#506,#507,#508,#509,
#510,#511,#512),.UNSPECIFIED.,.F.,.F.,(4,2,2,2,4),(0.909555201860926,1.02324967539577,
1.13694414893061,1.25063859961759,1.36433305030456),.UNSPECIFIED.);
#33=B_SPLINE_CURVE_WITH_KNOTS('',3,(#517,#518,#519,#520,#521,#522,#523,
#524,#525,#526),.UNSPECIFIED.,.F.,.F.,(4,2,2,2,4),(0.454777357274857,0.568471685135264,
0.682166012995671,0.795860363772692,0.909554714549714),.UNSPECIFIED.);
#34=B_SPLINE_CURVE_WITH_KNOTS('',3,(#535,#536,#537,#538,#539,#540,#541,
#542,#543,#544,#545,#546,#547,#548,#549,#550,#551,#552),.UNSPECIFIED.,.F.,
 .F.,(4,2,2,2,2,2,2,2,4),(0.,0.207821501569859,0.415643003139718,0.612123240350576,
0.808603477561434,1.00508371477229,1.20156395198315,1.40938545355301,1.61720488344853),
 .UNSPECIFIED.);
#35=B_SPLINE_CURVE_WITH_KNOTS('',3,(#553,#554,#555,#556,#557,#558,#559,
#560,#561,#562,#563,#564,#565,#566,#567,#568,#569,#570,#571,#572),
 .UNSPECIFIED.,.F.,.F.,(4,2,2,2,2,2,2,2,2,4),(1.61720488344853,1.61720695512287,
1.83660570138174,2.05600444764062,2.24914697147198,2.44228949530335,2.63543201913472,
2.82857454296608,3.04797328922496,3.26737203548383),.UNSPECIFIED.);
#36=B_SPLINE_CURVE_WITH_KNOTS('',3,(#576,#577,#578,#579,#580,#581,#582,
#583,#584,#585,#586,#587,#588,#589,#590,#591,#592,#593,#594,#595,#596,#597,
#598,#599,#600,#601),.UNSPECIFIED.,.F.,.F.,(4,2,2,2,2,2,2,2,2,2,2,2,4),
(0.,0.343603799495892,0.687207598991784,0.988380263016379,1.28955292704097,
1.59072559106557,1.89189825509016,2.23550205458606,2.57910585408195,2.90175734407355,
3.22440883406515,3.52978279680711,3.83515675954907),.UNSPECIFIED.);
#37=B_SPLINE_CURVE_WITH_KNOTS('',3,(#602,#603,#604,#605,#606,#607,#608,
#609,#610,#611),.UNSPECIFIED.,.F.,.F.,(4,2,2,2,4),(3.83515675954907,4.14053072229104,
4.445904685033,4.7685561750246,5.0912076650162),.UNSPECIFIED.);
#38=B_SPLINE_CURVE_WITH_KNOTS('',3,(#932,#933,#934,#935,#936,#937,#938,
#939,#940,#941,#942,#943,#944),.UNSPECIFIED.,.F.,.F.,(4,3,3,3,4),(0.,0.267840311448197,
0.54164360524981,0.854230804284348,1.),.UNSPECIFIED.);
#39=CYLINDRICAL_SURFACE('',#338,3.01775);
#40=CYLINDRICAL_SURFACE('',#342,5.13675);
#41=CYLINDRICAL_SURFACE('',#344,8.);
#42=FACE_OUTER_BOUND('',#60,.T.);
#43=FACE_OUTER_BOUND('',#61,.T.);
#44=FACE_OUTER_BOUND('',#62,.T.);
#45=FACE_OUTER_BOUND('',#63,.T.);
#46=FACE_OUTER_BOUND('',#64,.T.);
#47=FACE_OUTER_BOUND('',#65,.T.);
#48=FACE_OUTER_BOUND('',#67,.T.);
#49=FACE_OUTER_BOUND('',#68,.T.);
#50=FACE_OUTER_BOUND('',#69,.T.);
#51=FACE_OUTER_BOUND('',#71,.T.);
#52=FACE_OUTER_BOUND('',#72,.T.);
#53=FACE_OUTER_BOUND('',#74,.T.);
#54=FACE_OUTER_BOUND('',#75,.T.);
#55=FACE_OUTER_BOUND('',#76,.T.);
#56=FACE_OUTER_BOUND('',#77,.T.);
#57=FACE_OUTER_BOUND('',#78,.T.);
#58=FACE_OUTER_BOUND('',#79,.T.);
#59=FACE_OUTER_BOUND('',#80,.T.);
#60=EDGE_LOOP('',(#207,#208));
#61=EDGE_LOOP('',(#209,#210,#211,#212,#213,#214,#215,#216));
#62=EDGE_LOOP('',(#217,#218,#219));
#63=EDGE_LOOP('',(#220,#221,#222,#223,#224));
#64=EDGE_LOOP('',(#225,#226,#227,#228,#229));
#65=EDGE_LOOP('',(#230));
#66=EDGE_LOOP('',(#231));
#67=EDGE_LOOP('',(#232,#233,#234,#235));
#68=EDGE_LOOP('',(#236,#237,#238,#239));
#69=EDGE_LOOP('',(#240,#241,#242,#243,#244,#245,#246,#247));
#70=EDGE_LOOP('',(#248,#249));
#71=EDGE_LOOP('',(#250,#251,#252,#253));
#72=EDGE_LOOP('',(#254,#255,#256,#257,#258,#259,#260,#261,#262));
#73=EDGE_LOOP('',(#263,#264));
#74=EDGE_LOOP('',(#265,#266,#267,#268));
#75=EDGE_LOOP('',(#269,#270,#271,#272));
#76=EDGE_LOOP('',(#273,#274,#275,#276,#277));
#77=EDGE_LOOP('',(#278,#279,#280,#281,#282,#283));
#78=EDGE_LOOP('',(#284,#285,#286,#287,#288,#289));
#79=EDGE_LOOP('',(#290,#291,#292,#293,#294,#295));
#80=EDGE_LOOP('',(#296,#297,#298,#299,#300));
#81=CIRCLE('',#337,3.01775);
#82=CIRCLE('',#339,3.01775);
#83=CIRCLE('',#340,3.01775);
#84=CIRCLE('',#343,5.13675);
#85=CIRCLE('',#345,8.);
#86=CIRCLE('',#348,29.3336116224362);
#87=CIRCLE('',#349,49.8769618358819);
#88=CIRCLE('',#351,9.99999999999883);
#89=CIRCLE('',#352,51.1098323713476);
#90=CIRCLE('',#354,51.1044476650541);
#91=CIRCLE('',#356,61.1044476597077);
#92=CIRCLE('',#358,61.1098323660013);
#93=CIRCLE('',#360,58.6440912950698);
#94=CIRCLE('',#361,19.9999999999988);
#95=CIRCLE('',#363,38.1007410816242);
#96=CIRCLE('',#365,20.);
#97=CIRCLE('',#366,36.5008996956367);
#98=CIRCLE('',#367,36.5008996956367);
#99=CIRCLE('',#368,57.87);
#100=CIRCLE('',#369,57.87);
#101=CIRCLE('',#371,47.8703472600547);
#102=CIRCLE('',#372,47.8703472600547);
#103=CIRCLE('',#373,26.933849543455);
#104=CIRCLE('',#374,26.933849543455);
#105=CIRCLE('',#376,30.);
#106=LINE('',#478,#119);
#107=LINE('',#514,#120);
#108=LINE('',#528,#121);
#109=LINE('',#533,#122);
#110=LINE('',#613,#123);
#111=LINE('',#620,#124);
#112=LINE('',#627,#125);
#113=LINE('',#629,#126);
#114=LINE('',#633,#127);
#115=LINE('',#638,#128);
#116=LINE('',#639,#129);
#117=LINE('',#647,#130);
#118=LINE('',#813,#131);
#119=VECTOR('',#381,10.);
#120=VECTOR('',#386,3.018);
#121=VECTOR('',#393,10.);
#122=VECTOR('',#398,5.137);
#123=VECTOR('',#401,8.);
#124=VECTOR('',#410,39.6052867291591);
#125=VECTOR('',#421,51.1071400182008);
#126=VECTOR('',#422,51.1071400182008);
#127=VECTOR('',#427,56.1044476623809);
#128=VECTOR('',#434,61.1071400128545);
#129=VECTOR('',#435,61.1071400128545);
#130=VECTOR('',#446,48.372416188347);
#131=VECTOR('',#465,52.8701736300274);
#132=VERTEX_POINT('',#476);
#133=VERTEX_POINT('',#477);
#134=VERTEX_POINT('',#481);
#135=VERTEX_POINT('',#482);
#136=VERTEX_POINT('',#502);
#137=VERTEX_POINT('',#513);
#138=VERTEX_POINT('',#530);
#139=VERTEX_POINT('',#532);
#140=VERTEX_POINT('',#534);
#141=VERTEX_POINT('',#574);
#142=VERTEX_POINT('',#575);
#143=VERTEX_POINT('',#612);
#144=VERTEX_POINT('',#617);
#145=VERTEX_POINT('',#619);
#146=VERTEX_POINT('',#623);
#147=VERTEX_POINT('',#628);
#148=VERTEX_POINT('',#632);
#149=VERTEX_POINT('',#636);
#150=VERTEX_POINT('',#641);
#151=VERTEX_POINT('',#645);
#152=VERTEX_POINT('',#649);
#153=VERTEX_POINT('',#651);
#154=VERTEX_POINT('',#789);
#155=VERTEX_POINT('',#805);
#156=VERTEX_POINT('',#809);
#157=VERTEX_POINT('',#810);
#158=VERTEX_POINT('',#931);
#159=VERTEX_POINT('',#945);
#160=EDGE_CURVE('',#132,#133,#106,.T.);
#161=EDGE_CURVE('',#132,#133,#81,.F.);
#162=EDGE_CURVE('',#134,#135,#31,.T.);
#163=EDGE_CURVE('',#136,#134,#32,.T.);
#164=EDGE_CURVE('',#136,#137,#107,.T.);
#165=EDGE_CURVE('',#137,#132,#82,.F.);
#166=EDGE_CURVE('',#133,#137,#83,.F.);
#167=EDGE_CURVE('',#135,#136,#33,.T.);
#168=EDGE_CURVE('',#132,#133,#108,.T.);
#169=EDGE_CURVE('',#138,#138,#84,.T.);
#170=EDGE_CURVE('',#138,#139,#109,.T.);
#171=EDGE_CURVE('',#140,#139,#34,.T.);
#172=EDGE_CURVE('',#139,#140,#35,.T.);
#173=EDGE_CURVE('',#141,#142,#36,.T.);
#174=EDGE_CURVE('',#142,#141,#37,.T.);
#175=EDGE_CURVE('',#142,#143,#110,.T.);
#176=EDGE_CURVE('',#143,#143,#85,.T.);
#177=EDGE_CURVE('',#144,#144,#86,.T.);
#178=EDGE_CURVE('',#144,#145,#111,.T.);
#179=EDGE_CURVE('',#145,#145,#87,.T.);
#180=EDGE_CURVE('',#145,#146,#88,.T.);
#181=EDGE_CURVE('',#146,#146,#89,.T.);
#182=EDGE_CURVE('',#146,#132,#112,.T.);
#183=EDGE_CURVE('',#133,#147,#113,.T.);
#184=EDGE_CURVE('',#147,#147,#90,.T.);
#185=EDGE_CURVE('',#147,#148,#114,.T.);
#186=EDGE_CURVE('',#148,#148,#91,.T.);
#187=EDGE_CURVE('',#149,#149,#92,.T.);
#188=EDGE_CURVE('',#149,#134,#115,.T.);
#189=EDGE_CURVE('',#135,#148,#116,.T.);
#190=EDGE_CURVE('',#150,#150,#93,.T.);
#191=EDGE_CURVE('',#150,#149,#94,.T.);
#192=EDGE_CURVE('',#151,#151,#95,.T.);
#193=EDGE_CURVE('',#151,#150,#117,.T.);
#194=EDGE_CURVE('',#151,#152,#96,.T.);
#195=EDGE_CURVE('',#153,#152,#97,.T.);
#196=EDGE_CURVE('',#152,#153,#98,.T.);
#197=EDGE_CURVE('',#153,#154,#15,.T.);
#198=EDGE_CURVE('',#155,#154,#99,.T.);
#199=EDGE_CURVE('',#154,#155,#100,.T.);
#200=EDGE_CURVE('',#156,#157,#101,.T.);
#201=EDGE_CURVE('',#157,#156,#102,.T.);
#202=EDGE_CURVE('',#157,#155,#118,.T.);
#203=EDGE_CURVE('',#158,#156,#38,.T.);
#204=EDGE_CURVE('',#159,#158,#103,.T.);
#205=EDGE_CURVE('',#158,#159,#104,.T.);
#206=EDGE_CURVE('',#144,#159,#105,.T.);
#207=ORIENTED_EDGE('',*,*,#160,.T.);
#208=ORIENTED_EDGE('',*,*,#161,.F.);
#209=ORIENTED_EDGE('',*,*,#162,.F.);
#210=ORIENTED_EDGE('',*,*,#163,.F.);
#211=ORIENTED_EDGE('',*,*,#164,.T.);
#212=ORIENTED_EDGE('',*,*,#165,.T.);
#213=ORIENTED_EDGE('',*,*,#161,.T.);
#214=ORIENTED_EDGE('',*,*,#166,.T.);
#215=ORIENTED_EDGE('',*,*,#164,.F.);
#216=ORIENTED_EDGE('',*,*,#167,.F.);
#217=ORIENTED_EDGE('',*,*,#168,.F.);
#218=ORIENTED_EDGE('',*,*,#165,.F.);
#219=ORIENTED_EDGE('',*,*,#166,.F.);
#220=ORIENTED_EDGE('',*,*,#169,.F.);
#221=ORIENTED_EDGE('',*,*,#170,.T.);
#222=ORIENTED_EDGE('',*,*,#171,.F.);
#223=ORIENTED_EDGE('',*,*,#172,.F.);
#224=ORIENTED_EDGE('',*,*,#170,.F.);
#225=ORIENTED_EDGE('',*,*,#173,.F.);
#226=ORIENTED_EDGE('',*,*,#174,.F.);
#227=ORIENTED_EDGE('',*,*,#175,.T.);
#228=ORIENTED_EDGE('',*,*,#176,.F.);
#229=ORIENTED_EDGE('',*,*,#175,.F.);
#230=ORIENTED_EDGE('',*,*,#176,.T.);
#231=ORIENTED_EDGE('',*,*,#169,.T.);
#232=ORIENTED_EDGE('',*,*,#177,.T.);
#233=ORIENTED_EDGE('',*,*,#178,.T.);
#234=ORIENTED_EDGE('',*,*,#179,.F.);
#235=ORIENTED_EDGE('',*,*,#178,.F.);
#236=ORIENTED_EDGE('',*,*,#179,.T.);
#237=ORIENTED_EDGE('',*,*,#180,.T.);
#238=ORIENTED_EDGE('',*,*,#181,.F.);
#239=ORIENTED_EDGE('',*,*,#180,.F.);
#240=ORIENTED_EDGE('',*,*,#181,.T.);
#241=ORIENTED_EDGE('',*,*,#182,.T.);
#242=ORIENTED_EDGE('',*,*,#168,.T.);
#243=ORIENTED_EDGE('',*,*,#183,.T.);
#244=ORIENTED_EDGE('',*,*,#184,.F.);
#245=ORIENTED_EDGE('',*,*,#183,.F.);
#246=ORIENTED_EDGE('',*,*,#160,.F.);
#247=ORIENTED_EDGE('',*,*,#182,.F.);
#248=ORIENTED_EDGE('',*,*,#171,.T.);
#249=ORIENTED_EDGE('',*,*,#172,.T.);
#250=ORIENTED_EDGE('',*,*,#184,.T.);
#251=ORIENTED_EDGE('',*,*,#185,.T.);
#252=ORIENTED_EDGE('',*,*,#186,.F.);
#253=ORIENTED_EDGE('',*,*,#185,.F.);
#254=ORIENTED_EDGE('',*,*,#187,.F.);
#255=ORIENTED_EDGE('',*,*,#188,.T.);
#256=ORIENTED_EDGE('',*,*,#162,.T.);
#257=ORIENTED_EDGE('',*,*,#189,.T.);
#258=ORIENTED_EDGE('',*,*,#186,.T.);
#259=ORIENTED_EDGE('',*,*,#189,.F.);
#260=ORIENTED_EDGE('',*,*,#167,.T.);
#261=ORIENTED_EDGE('',*,*,#163,.T.);
#262=ORIENTED_EDGE('',*,*,#188,.F.);
#263=ORIENTED_EDGE('',*,*,#173,.T.);
#264=ORIENTED_EDGE('',*,*,#174,.T.);
#265=ORIENTED_EDGE('',*,*,#190,.F.);
#266=ORIENTED_EDGE('',*,*,#191,.T.);
#267=ORIENTED_EDGE('',*,*,#187,.T.);
#268=ORIENTED_EDGE('',*,*,#191,.F.);
#269=ORIENTED_EDGE('',*,*,#192,.F.);
#270=ORIENTED_EDGE('',*,*,#193,.T.);
#271=ORIENTED_EDGE('',*,*,#190,.T.);
#272=ORIENTED_EDGE('',*,*,#193,.F.);
#273=ORIENTED_EDGE('',*,*,#192,.T.);
#274=ORIENTED_EDGE('',*,*,#194,.T.);
#275=ORIENTED_EDGE('',*,*,#195,.F.);
#276=ORIENTED_EDGE('',*,*,#196,.F.);
#277=ORIENTED_EDGE('',*,*,#194,.F.);
#278=ORIENTED_EDGE('',*,*,#197,.F.);
#279=ORIENTED_EDGE('',*,*,#195,.T.);
#280=ORIENTED_EDGE('',*,*,#196,.T.);
#281=ORIENTED_EDGE('',*,*,#197,.T.);
#282=ORIENTED_EDGE('',*,*,#198,.F.);
#283=ORIENTED_EDGE('',*,*,#199,.F.);
#284=ORIENTED_EDGE('',*,*,#200,.F.);
#285=ORIENTED_EDGE('',*,*,#201,.F.);
#286=ORIENTED_EDGE('',*,*,#202,.T.);
#287=ORIENTED_EDGE('',*,*,#198,.T.);
#288=ORIENTED_EDGE('',*,*,#199,.T.);
#289=ORIENTED_EDGE('',*,*,#202,.F.);
#290=ORIENTED_EDGE('',*,*,#203,.T.);
#291=ORIENTED_EDGE('',*,*,#200,.T.);
#292=ORIENTED_EDGE('',*,*,#201,.T.);
#293=ORIENTED_EDGE('',*,*,#203,.F.);
#294=ORIENTED_EDGE('',*,*,#204,.F.);
#295=ORIENTED_EDGE('',*,*,#205,.F.);
#296=ORIENTED_EDGE('',*,*,#177,.F.);
#297=ORIENTED_EDGE('',*,*,#206,.T.);
#298=ORIENTED_EDGE('',*,*,#204,.T.);
#299=ORIENTED_EDGE('',*,*,#205,.T.);
#300=ORIENTED_EDGE('',*,*,#206,.F.);
#301=PLANE('',#336);
#302=PLANE('',#341);
#303=PLANE('',#346);
#304=ADVANCED_FACE('',(#42),#301,.F.);
#305=ADVANCED_FACE('',(#43),#39,.F.);
#306=ADVANCED_FACE('',(#44),#302,.F.);
#307=ADVANCED_FACE('',(#45),#40,.F.);
#308=ADVANCED_FACE('',(#46),#41,.T.);
#309=ADVANCED_FACE('',(#47,#28),#303,.T.);
#310=ADVANCED_FACE('',(#48),#22,.F.);
#311=ADVANCED_FACE('',(#49),#18,.F.);
#312=ADVANCED_FACE('',(#50,#29),#23,.F.);
#313=ADVANCED_FACE('',(#51),#24,.F.);
#314=ADVANCED_FACE('',(#52,#30),#25,.T.);
#315=ADVANCED_FACE('',(#53),#19,.T.);
#316=ADVANCED_FACE('',(#54),#26,.T.);
#317=ADVANCED_FACE('',(#55),#20,.F.);
#318=ADVANCED_FACE('',(#56),#16,.T.);
#319=ADVANCED_FACE('',(#57),#27,.T.);
#320=ADVANCED_FACE('',(#58),#17,.T.);
#321=ADVANCED_FACE('',(#59),#21,.T.);
#322=CLOSED_SHELL('',(#304,#305,#306,#307,#308,#309,#310,#311,#312,#313,
#314,#315,#316,#317,#318,#319,#320,#321));
#323=DERIVED_UNIT_ELEMENT(#325,1.);
#324=DERIVED_UNIT_ELEMENT(#955,-3.);
#325=(
MASS_UNIT()
NAMED_UNIT(*)
SI_UNIT(.KILO.,.GRAM.)
);
#326=DERIVED_UNIT((#323,#324));
#327=MEASURE_REPRESENTATION_ITEM('density measure',
POSITIVE_RATIO_MEASURE(7850.),#326);
#328=PROPERTY_DEFINITION_REPRESENTATION(#333,#330);
#329=PROPERTY_DEFINITION_REPRESENTATION(#334,#331);
#330=REPRESENTATION('material name',(#332),#952);
#331=REPRESENTATION('density',(#327),#952);
#332=DESCRIPTIVE_REPRESENTATION_ITEM('Steel','Steel');
#333=PROPERTY_DEFINITION('material property','material name',#962);
#334=PROPERTY_DEFINITION('material property','density of part',#962);
#335=AXIS2_PLACEMENT_3D('',#474,#377,#378);
#336=AXIS2_PLACEMENT_3D('',#475,#379,#380);
#337=AXIS2_PLACEMENT_3D('',#479,#382,#383);
#338=AXIS2_PLACEMENT_3D('',#480,#384,#385);
#339=AXIS2_PLACEMENT_3D('',#515,#387,#388);
#340=AXIS2_PLACEMENT_3D('',#516,#389,#390);
#341=AXIS2_PLACEMENT_3D('',#527,#391,#392);
#342=AXIS2_PLACEMENT_3D('',#529,#394,#395);
#343=AXIS2_PLACEMENT_3D('',#531,#396,#397);
#344=AXIS2_PLACEMENT_3D('',#573,#399,#400);
#345=AXIS2_PLACEMENT_3D('',#614,#402,#403);
#346=AXIS2_PLACEMENT_3D('',#615,#404,#405);
#347=AXIS2_PLACEMENT_3D('',#616,#406,#407);
#348=AXIS2_PLACEMENT_3D('',#618,#408,#409);
#349=AXIS2_PLACEMENT_3D('',#621,#411,#412);
#350=AXIS2_PLACEMENT_3D('',#622,#413,#414);
#351=AXIS2_PLACEMENT_3D('',#624,#415,#416);
#352=AXIS2_PLACEMENT_3D('',#625,#417,#418);
#353=AXIS2_PLACEMENT_3D('',#626,#419,#420);
#354=AXIS2_PLACEMENT_3D('',#630,#423,#424);
#355=AXIS2_PLACEMENT_3D('',#631,#425,#426);
#356=AXIS2_PLACEMENT_3D('',#634,#428,#429);
#357=AXIS2_PLACEMENT_3D('',#635,#430,#431);
#358=AXIS2_PLACEMENT_3D('',#637,#432,#433);
#359=AXIS2_PLACEMENT_3D('',#640,#436,#437);
#360=AXIS2_PLACEMENT_3D('',#642,#438,#439);
#361=AXIS2_PLACEMENT_3D('',#643,#440,#441);
#362=AXIS2_PLACEMENT_3D('',#644,#442,#443);
#363=AXIS2_PLACEMENT_3D('',#646,#444,#445);
#364=AXIS2_PLACEMENT_3D('',#648,#447,#448);
#365=AXIS2_PLACEMENT_3D('',#650,#449,#450);
#366=AXIS2_PLACEMENT_3D('',#652,#451,#452);
#367=AXIS2_PLACEMENT_3D('',#653,#453,#454);
#368=AXIS2_PLACEMENT_3D('',#806,#455,#456);
#369=AXIS2_PLACEMENT_3D('',#807,#457,#458);
#370=AXIS2_PLACEMENT_3D('',#808,#459,#460);
#371=AXIS2_PLACEMENT_3D('',#811,#461,#462);
#372=AXIS2_PLACEMENT_3D('',#812,#463,#464);
#373=AXIS2_PLACEMENT_3D('',#946,#466,#467);
#374=AXIS2_PLACEMENT_3D('',#947,#468,#469);
#375=AXIS2_PLACEMENT_3D('',#948,#470,#471);
#376=AXIS2_PLACEMENT_3D('',#949,#472,#473);
#377=DIRECTION('axis',(0.,0.,1.));
#378=DIRECTION('refdir',(1.,0.,0.));
#379=DIRECTION('center_axis',(1.22464679849262E-16,3.2699625108132E-5,0.999999999465367));
#380=DIRECTION('ref_axis',(-1.,0.,1.22464679914735E-16));
#381=DIRECTION('',(4.00454912219923E-21,-0.999999999465367,3.2699625108132E-5));
#382=DIRECTION('center_axis',(-1.22464679849262E-16,-3.2699625108132E-5,
-0.999999999465367));
#383=DIRECTION('ref_axis',(-1.,0.,1.22464679914735E-16));
#384=DIRECTION('center_axis',(1.22464679849262E-16,3.2699625108132E-5,0.999999999465367));
#385=DIRECTION('ref_axis',(-1.,0.,1.22464679914735E-16));
#386=DIRECTION('',(1.22464679849262E-16,3.2699625108132E-5,0.999999999465367));
#387=DIRECTION('center_axis',(-1.22464679849262E-16,-3.2699625108132E-5,
-0.999999999465367));
#388=DIRECTION('ref_axis',(-1.,0.,1.22464679914735E-16));
#389=DIRECTION('center_axis',(-1.22464679849262E-16,-3.2699625108132E-5,
-0.999999999465367));
#390=DIRECTION('ref_axis',(-1.,0.,1.22464679914735E-16));
#391=DIRECTION('center_axis',(1.22464679849262E-16,3.2699625108132E-5,0.999999999465367));
#392=DIRECTION('ref_axis',(-1.,0.,1.22464679914735E-16));
#393=DIRECTION('',(4.00454912219923E-21,-0.999999999465367,3.2699625108132E-5));
#394=DIRECTION('center_axis',(-6.12323399573677E-17,0.43022843980547,-0.902720050504336));
#395=DIRECTION('ref_axis',(1.,0.,-6.78309293375705E-17));
#396=DIRECTION('center_axis',(-6.12323399573677E-17,0.43022843980547,-0.902720050504336));
#397=DIRECTION('ref_axis',(1.,0.,-6.78309293375705E-17));
#398=DIRECTION('',(-6.12323399573677E-17,0.43022843980547,-0.902720050504336));
#399=DIRECTION('center_axis',(0.,0.43022843980547,-0.902720050504336));
#400=DIRECTION('ref_axis',(0.,-0.902720050504336,-0.43022843980547));
#401=DIRECTION('',(0.,-0.43022843980547,0.902720050504336));
#402=DIRECTION('center_axis',(6.12323399573677E-17,-0.43022843980547,0.902720050504336));
#403=DIRECTION('ref_axis',(0.,-0.902720050504336,-0.43022843980547));
#404=DIRECTION('center_axis',(6.12323399573677E-17,-0.43022843980547,0.902720050504336));
#405=DIRECTION('ref_axis',(0.,-0.902720050504336,-0.43022843980547));
#406=DIRECTION('center_axis',(0.,-1.,0.));
#407=DIRECTION('ref_axis',(0.,0.,1.));
#408=DIRECTION('center_axis',(0.,1.,0.));
#409=DIRECTION('ref_axis',(1.,0.,0.));
#410=DIRECTION('',(-5.89072181945973E-17,-0.876712945918794,-0.481013939983437));
#411=DIRECTION('center_axis',(0.,1.,0.));
#412=DIRECTION('ref_axis',(1.,0.,0.));
#413=DIRECTION('center_axis',(0.,1.,0.));
#414=DIRECTION('ref_axis',(0.,0.,1.));
#415=DIRECTION('center_axis',(-1.,0.,1.22464679914735E-16));
#416=DIRECTION('ref_axis',(-1.22464679914735E-16,0.,-1.));
#417=DIRECTION('center_axis',(0.,1.,0.));
#418=DIRECTION('ref_axis',(1.,0.,0.));
#419=DIRECTION('center_axis',(0.,1.,0.));
#420=DIRECTION('ref_axis',(0.,0.,1.));
#421=DIRECTION('',(4.00454912219922E-21,-0.999999999465367,3.2699625108132E-5));
#422=DIRECTION('',(4.00454912219922E-21,-0.999999999465367,3.2699625108132E-5));
#423=DIRECTION('center_axis',(0.,1.,0.));
#424=DIRECTION('ref_axis',(1.,0.,0.));
#425=DIRECTION('center_axis',(0.,-1.,0.));
#426=DIRECTION('ref_axis',(0.,0.,1.));
#427=DIRECTION('',(-1.22464679849262E-16,-3.26996251081325E-5,-0.999999999465367));
#428=DIRECTION('center_axis',(0.,1.,0.));
#429=DIRECTION('ref_axis',(1.,0.,0.));
#430=DIRECTION('center_axis',(0.,1.,0.));
#431=DIRECTION('ref_axis',(0.,0.,1.));
#432=DIRECTION('center_axis',(0.,1.,0.));
#433=DIRECTION('ref_axis',(1.,0.,0.));
#434=DIRECTION('',(4.00454912219922E-21,-0.999999999465367,3.2699625108132E-5));
#435=DIRECTION('',(4.00454912219922E-21,-0.999999999465367,3.2699625108132E-5));
#436=DIRECTION('center_axis',(0.,1.,0.));
#437=DIRECTION('ref_axis',(0.,0.,1.));
#438=DIRECTION('center_axis',(0.,1.,0.));
#439=DIRECTION('ref_axis',(1.,0.,0.));
#440=DIRECTION('center_axis',(-1.,0.,1.22464679914735E-16));
#441=DIRECTION('ref_axis',(-1.22464679914735E-16,0.,-1.));
#442=DIRECTION('center_axis',(0.,-1.,0.));
#443=DIRECTION('ref_axis',(0.,0.,1.));
#444=DIRECTION('center_axis',(0.,1.,0.));
#445=DIRECTION('ref_axis',(1.,0.,0.));
#446=DIRECTION('',(-5.89072181945973E-17,-0.876712945918794,-0.481013939983437));
#447=DIRECTION('center_axis',(0.,1.,0.));
#448=DIRECTION('ref_axis',(0.,0.,1.));
#449=DIRECTION('center_axis',(-1.,0.,1.22464679914735E-16));
#450=DIRECTION('ref_axis',(-1.22464679914735E-16,0.,-1.));
#451=DIRECTION('center_axis',(0.,1.,0.));
#452=DIRECTION('ref_axis',(1.,0.,0.));
#453=DIRECTION('center_axis',(0.,1.,0.));
#454=DIRECTION('ref_axis',(1.,0.,0.));
#455=DIRECTION('center_axis',(0.,1.,0.));
#456=DIRECTION('ref_axis',(1.,0.,0.));
#457=DIRECTION('center_axis',(0.,1.,0.));
#458=DIRECTION('ref_axis',(1.,0.,0.));
#459=DIRECTION('center_axis',(0.,-1.,0.));
#460=DIRECTION('ref_axis',(0.,0.,1.));
#461=DIRECTION('center_axis',(0.,1.,0.));
#462=DIRECTION('ref_axis',(1.,0.,0.));
#463=DIRECTION('center_axis',(0.,1.,0.));
#464=DIRECTION('ref_axis',(1.,0.,0.));
#465=DIRECTION('',(-1.22460427205591E-16,-0.00833371496018388,-0.999965273994533));
#466=DIRECTION('center_axis',(0.,1.,0.));
#467=DIRECTION('ref_axis',(1.,0.,0.));
#468=DIRECTION('center_axis',(0.,1.,0.));
#469=DIRECTION('ref_axis',(1.,0.,0.));
#470=DIRECTION('center_axis',(0.,1.,0.));
#471=DIRECTION('ref_axis',(0.,0.,1.));
#472=DIRECTION('center_axis',(-1.,0.,1.22464679914735E-16));
#473=DIRECTION('ref_axis',(-1.22464679914735E-16,0.,-1.));
#474=CARTESIAN_POINT('',(0.,0.,0.));
#475=CARTESIAN_POINT('Origin',(-6.25900892446095E-15,129.887449429835,38.8913135704212));
#476=CARTESIAN_POINT('',(-6.25902100918906E-15,132.905199428222,38.8912148911275));
#477=CARTESIAN_POINT('',(-6.25899683973284E-15,126.869699431449,38.8914122497149));
#478=CARTESIAN_POINT('',(-6.25881954368653E-15,82.5960394502802,38.8928599817992));
#479=CARTESIAN_POINT('Origin',(-6.25900892446095E-15,129.887449429835,38.8913135704212));
#480=CARTESIAN_POINT('Origin',(-6.87133232370726E-15,129.88728593171,33.8913135730944));
#481=CARTESIAN_POINT('',(-7.21644966006352E-15,132.904872431971,28.8912148964738));
#482=CARTESIAN_POINT('',(-7.24596324058588E-15,126.869372435198,28.8914122550612));
#483=CARTESIAN_POINT('Ctrl Pts',(-8.81239525796218E-15,132.904872431971,
28.8912148964738));
#484=CARTESIAN_POINT('Ctrl Pts',(-0.37898190838256,132.904872431971,28.8912148964738));
#485=CARTESIAN_POINT('Ctrl Pts',(-0.783182746831159,132.829120243856,28.8951050729697));
#486=CARTESIAN_POINT('Ctrl Pts',(-1.52667644538087,132.521128451274,28.9091693671565));
#487=CARTESIAN_POINT('Ctrl Pts',(-1.86597450396356,132.288892251358,28.9191425098191));
#488=CARTESIAN_POINT('Ctrl Pts',(-2.40177197353313,131.753094529032,28.9378811151837));
#489=CARTESIAN_POINT('Ctrl Pts',(-2.63400791140761,131.413796446266,28.9478630647872));
#490=CARTESIAN_POINT('Ctrl Pts',(-2.9419989278451,130.670302788154,28.9619537253957));
#491=CARTESIAN_POINT('Ctrl Pts',(-3.0177506119823,130.266101982855,28.9658599444812));
#492=CARTESIAN_POINT('Ctrl Pts',(-3.01774999999607,129.887119998516,28.9658723219299));
#493=CARTESIAN_POINT('Ctrl Pts',(-3.01774938801116,129.508138829462,28.9658846993519));
#494=CARTESIAN_POINT('Ctrl Pts',(-2.94199672174579,129.103938828142,28.9620048991844));
#495=CARTESIAN_POINT('Ctrl Pts',(-2.63400452226264,128.360446487876,28.9479628558362));
#496=CARTESIAN_POINT('Ctrl Pts',(-2.40176838346434,128.021148932221,28.9380031037026));
#497=CARTESIAN_POINT('Ctrl Pts',(-1.86597120174822,127.48535200404,28.9192995579884));
#498=CARTESIAN_POINT('Ctrl Pts',(-1.52667357241468,127.253116047463,28.9093416129253));
#499=CARTESIAN_POINT('Ctrl Pts',(-0.783181117221797,126.945124554194,28.8952974737187));
#500=CARTESIAN_POINT('Ctrl Pts',(-0.378981092868032,126.869372435198,28.8914122550612));
#501=CARTESIAN_POINT('Ctrl Pts',(-8.81239525796218E-15,126.869372435198,
28.8914122550612));
#502=CARTESIAN_POINT('',(3.01774999999999,129.887124871628,28.9658723217705));
#503=CARTESIAN_POINT('Ctrl Pts',(3.01774999999999,129.887124871629,28.9658723217705));
#504=CARTESIAN_POINT('Ctrl Pts',(3.01774999999973,130.266106855968,28.965859914063));
#505=CARTESIAN_POINT('Ctrl Pts',(2.94199892784508,130.670302788154,28.9619537253957));
#506=CARTESIAN_POINT('Ctrl Pts',(2.6340079114076,131.413796446266,28.9478630647872));
#507=CARTESIAN_POINT('Ctrl Pts',(2.40177197353312,131.753094529032,28.9378811151837));
#508=CARTESIAN_POINT('Ctrl Pts',(1.86597450396355,132.288892251358,28.9191425098191));
#509=CARTESIAN_POINT('Ctrl Pts',(1.52667644538087,132.521128451274,28.9091693671565));
#510=CARTESIAN_POINT('Ctrl Pts',(0.783182746831154,132.829120243856,28.8951050729697));
#511=CARTESIAN_POINT('Ctrl Pts',(0.378981908382544,132.904872431971,28.8912148964738));
#512=CARTESIAN_POINT('Ctrl Pts',(-6.76542155630955E-15,132.904872431971,
28.8912148964738));
#513=CARTESIAN_POINT('',(3.01774999999999,129.887449429835,38.8913135704212));
#514=CARTESIAN_POINT('',(3.01774999999999,129.88728593171,33.8913135730944));
#515=CARTESIAN_POINT('Origin',(-6.25900892446095E-15,129.887449429835,38.8913135704212));
#516=CARTESIAN_POINT('Origin',(-6.25900892446095E-15,129.887449429835,38.8913135704212));
#517=CARTESIAN_POINT('Ctrl Pts',(-6.45317133063372E-15,126.869372435198,
28.8914122550612));
#518=CARTESIAN_POINT('Ctrl Pts',(0.378981092868017,126.869372435198,28.8914122550612));
#519=CARTESIAN_POINT('Ctrl Pts',(0.783181117221775,126.945124554194,28.8952974737187));
#520=CARTESIAN_POINT('Ctrl Pts',(1.52667357241466,127.253116047463,28.9093416129253));
#521=CARTESIAN_POINT('Ctrl Pts',(1.86597120174821,127.48535200404,28.9192995579884));
#522=CARTESIAN_POINT('Ctrl Pts',(2.40176838346432,128.021148932221,28.9380031037026));
#523=CARTESIAN_POINT('Ctrl Pts',(2.63400452226263,128.360446487876,28.9479628558362));
#524=CARTESIAN_POINT('Ctrl Pts',(2.94199672174577,129.103938828142,28.9620048991844));
#525=CARTESIAN_POINT('Ctrl Pts',(3.01774938801115,129.508138829462,28.9658846993519));
#526=CARTESIAN_POINT('Ctrl Pts',(3.01774999999606,129.887119998516,28.9658723219299));
#527=CARTESIAN_POINT('Origin',(-6.25900892446095E-15,129.887449429835,38.8913135704212));
#528=CARTESIAN_POINT('',(-6.25881954368653E-15,82.5960394502802,38.8928599817992));
#529=CARTESIAN_POINT('Origin',(1.74706856053054E-15,65.7559322777242,152.945169932274));
#530=CARTESIAN_POINT('',(-5.13675,57.1513634816148,170.99957094236));
#531=CARTESIAN_POINT('Origin',(2.97171535967789E-15,57.1513634816148,170.99957094236));
#532=CARTESIAN_POINT('',(-5.13675,71.5213491090981,140.847974833916));
#533=CARTESIAN_POINT('',(-5.13675,65.7559322777242,152.945169932274));
#534=CARTESIAN_POINT('',(5.13674999996596,71.5213283923462,140.847974833242));
#535=CARTESIAN_POINT('Ctrl Pts',(5.13674999996596,71.5213283923462,140.847974833242));
#536=CARTESIAN_POINT('Ctrl Pts',(5.13675227675046,72.214066730542,140.847997370816));
#537=CARTESIAN_POINT('Ctrl Pts',(5.01566528705095,72.9586597151541,140.860769226475));
#538=CARTESIAN_POINT('Ctrl Pts',(4.49948039991735,74.3401417013896,140.909076181676));
#539=CARTESIAN_POINT('Ctrl Pts',(4.10379221531858,74.9768294911506,140.944054394284));
#540=CARTESIAN_POINT('Ctrl Pts',(3.18641628295079,75.9619009259795,141.00945113314));
#541=CARTESIAN_POINT('Ctrl Pts',(2.61525221908954,76.3841749653855,141.043908377498));
#542=CARTESIAN_POINT('Ctrl Pts',(1.34951297909282,76.9473047790373,141.093060421484));
#543=CARTESIAN_POINT('Ctrl Pts',(0.654934124036193,77.0882214190489,141.106959914616));
#544=CARTESIAN_POINT('Ctrl Pts',(-0.654934124036191,77.0882214190489,141.106959914616));
#545=CARTESIAN_POINT('Ctrl Pts',(-1.34951297909282,76.9473047790373,141.093060421484));
#546=CARTESIAN_POINT('Ctrl Pts',(-2.61525221908953,76.3841749653855,141.043908377498));
#547=CARTESIAN_POINT('Ctrl Pts',(-3.18641628295079,75.9619009259795,141.009451133141));
#548=CARTESIAN_POINT('Ctrl Pts',(-4.10379221531858,74.9768294911506,140.944054394284));
#549=CARTESIAN_POINT('Ctrl Pts',(-4.49948039991736,74.3401417013896,140.909076181676));
#550=CARTESIAN_POINT('Ctrl Pts',(-5.01566271424935,72.9586666008247,140.86076946725));
#551=CARTESIAN_POINT('Ctrl Pts',(-5.13674999999812,72.2140815755287,140.847997601305));
#552=CARTESIAN_POINT('Ctrl Pts',(-5.13675,71.521349109105,140.84797483392));
#553=CARTESIAN_POINT('Ctrl Pts',(-5.13675,71.521349109105,140.84797483392));
#554=CARTESIAN_POINT('Ctrl Pts',(-5.13675,71.5213422035136,140.847974833693));
#555=CARTESIAN_POINT('Ctrl Pts',(-5.13674999998865,71.5213352979273,140.847974833467));
#556=CARTESIAN_POINT('Ctrl Pts',(-5.13674759634717,70.7899992385409,140.847951040154));
#557=CARTESIAN_POINT('Ctrl Pts',(-5.00261402562319,70.0062197080728,140.862046185499));
#558=CARTESIAN_POINT('Ctrl Pts',(-4.4528604174457,68.548515294317,140.91307348296));
#559=CARTESIAN_POINT('Ctrl Pts',(-4.03730895294934,67.8745416374704,140.949348951659));
#560=CARTESIAN_POINT('Ctrl Pts',(-3.10794966705956,66.8630438714264,141.013900598451));
#561=CARTESIAN_POINT('Ctrl Pts',(-2.55395361387306,66.4349453790885,141.046478234171));
#562=CARTESIAN_POINT('Ctrl Pts',(-1.32215968735817,65.8567615018801,141.093204846647));
#563=CARTESIAN_POINT('Ctrl Pts',(-0.643808412771222,65.7077941305488,141.10658777891));
#564=CARTESIAN_POINT('Ctrl Pts',(0.643808412771222,65.7077941305488,141.10658777891));
#565=CARTESIAN_POINT('Ctrl Pts',(1.32215968735817,65.8567615018801,141.093204846647));
#566=CARTESIAN_POINT('Ctrl Pts',(2.55395361387306,66.4349453790885,141.046478234171));
#567=CARTESIAN_POINT('Ctrl Pts',(3.10794966705956,66.8630438714264,141.013900598451));
#568=CARTESIAN_POINT('Ctrl Pts',(4.03730895294934,67.8745416374704,140.949348951659));
#569=CARTESIAN_POINT('Ctrl Pts',(4.4528604174457,68.548515294317,140.91307348296));
#570=CARTESIAN_POINT('Ctrl Pts',(5.00261402562319,70.0062197080728,140.862046185499));
#571=CARTESIAN_POINT('Ctrl Pts',(5.13674759634717,70.7899992385409,140.847951040154));
#572=CARTESIAN_POINT('Ctrl Pts',(5.13674999996596,71.5213283923462,140.847974833242));
#573=CARTESIAN_POINT('Origin',(0.,57.1522637450523,171.));
#574=CARTESIAN_POINT('',(7.99999999991004,66.8838862537793,150.580688100122));
#575=CARTESIAN_POINT('',(9.79717439317882E-16,75.4952417235533,151.106907830123));
#576=CARTESIAN_POINT('Ctrl Pts',(7.99999999991004,66.8838862537793,150.580688100122));
#577=CARTESIAN_POINT('Ctrl Pts',(7.99999509669256,65.738540256072,150.580650970086));
#578=CARTESIAN_POINT('Ctrl Pts',(7.78898413993815,64.5117083363907,150.609647653301));
#579=CARTESIAN_POINT('Ctrl Pts',(6.92954632109465,62.2286255156738,150.713836371675));
#580=CARTESIAN_POINT('Ctrl Pts',(6.28135337312445,61.1722245781952,150.787665546813));
#581=CARTESIAN_POINT('Ctrl Pts',(4.83525544319303,59.587622407068,150.918559659134));
#582=CARTESIAN_POINT('Ctrl Pts',(3.97511150721851,58.9160065123845,150.984470256949));
#583=CARTESIAN_POINT('Ctrl Pts',(2.05995404033606,58.0068422424797,151.079129686712));
#584=CARTESIAN_POINT('Ctrl Pts',(1.00390888008198,57.7713076586288,151.106328264124));
#585=CARTESIAN_POINT('Ctrl Pts',(-1.00390888008198,57.7713076586288,151.106328264124));
#586=CARTESIAN_POINT('Ctrl Pts',(-2.05995404033606,58.0068422424797,151.079129686712));
#587=CARTESIAN_POINT('Ctrl Pts',(-3.97511150721851,58.9160065123845,150.984470256949));
#588=CARTESIAN_POINT('Ctrl Pts',(-4.83525544319304,59.587622407068,150.918559659134));
#589=CARTESIAN_POINT('Ctrl Pts',(-6.28135337312445,61.1722245781952,150.787665546813));
#590=CARTESIAN_POINT('Ctrl Pts',(-6.92954632109465,62.2286255156738,150.713836371675));
#591=CARTESIAN_POINT('Ctrl Pts',(-7.78898413993815,64.5117083363907,150.609647653301));
#592=CARTESIAN_POINT('Ctrl Pts',(-7.99999509669256,65.738540256072,150.580650970086));
#593=CARTESIAN_POINT('Ctrl Pts',(-8.0000046041386,67.959391219843,150.580722966039));
#594=CARTESIAN_POINT('Ctrl Pts',(-7.8124591349176,69.1153886616724,150.606583337699));
#595=CARTESIAN_POINT('Ctrl Pts',(-7.00906630751467,71.2572437577064,150.704810425231));
#596=CARTESIAN_POINT('Ctrl Pts',(-6.39214350822181,72.242749888414,150.776039646414));
#597=CARTESIAN_POINT('Ctrl Pts',(-4.96096479013176,73.7647251641229,150.909150110678));
#598=CARTESIAN_POINT('Ctrl Pts',(-4.07011271491572,74.4147076903079,150.979162820747));
#599=CARTESIAN_POINT('Ctrl Pts',(-2.09854938573623,75.2797897946565,151.078831541401));
#600=CARTESIAN_POINT('Ctrl Pts',(-1.01791320913988,75.4952417235533,151.106907830123));
#601=CARTESIAN_POINT('Ctrl Pts',(-1.38777878078145E-15,75.4952417235533,
151.106907830123));
#602=CARTESIAN_POINT('Ctrl Pts',(-2.77555756156289E-16,75.4952417235533,
151.106907830123));
#603=CARTESIAN_POINT('Ctrl Pts',(1.01791320913988,75.4952417235533,151.106907830123));
#604=CARTESIAN_POINT('Ctrl Pts',(2.09854938573623,75.2797897946565,151.078831541401));
#605=CARTESIAN_POINT('Ctrl Pts',(4.07011271491572,74.4147076903079,150.979162820747));
#606=CARTESIAN_POINT('Ctrl Pts',(4.96096479013176,73.7647251641229,150.909150110678));
#607=CARTESIAN_POINT('Ctrl Pts',(6.39214350822181,72.242749888414,150.776039646414));
#608=CARTESIAN_POINT('Ctrl Pts',(7.00906630751467,71.2572437577064,150.704810425231));
#609=CARTESIAN_POINT('Ctrl Pts',(7.8124591349176,69.1153886616724,150.606583337699));
#610=CARTESIAN_POINT('Ctrl Pts',(8.0000046041386,67.959391219843,150.580722966039));
#611=CARTESIAN_POINT('Ctrl Pts',(7.99999999991004,66.8838862537793,150.580688100122));
#612=CARTESIAN_POINT('',(-9.79717439317882E-16,64.3740241490869,174.441827518444));
#613=CARTESIAN_POINT('',(9.79717439317882E-16,64.3740241490869,174.441827518444));
#614=CARTESIAN_POINT('Origin',(0.,57.1522637450523,171.));
#615=CARTESIAN_POINT('Origin',(-9.86076131526265E-31,57.1522637450523,171.));
#616=CARTESIAN_POINT('Origin',(0.,188.463925132475,90.));
#617=CARTESIAN_POINT('',(-3.59233135808481E-15,207.185441899008,60.6663883775638));
#618=CARTESIAN_POINT('Origin',(0.,207.185441899008,90.));
#619=CARTESIAN_POINT('',(-6.10816616635075E-15,169.742408365943,40.1230381641181));
#620=CARTESIAN_POINT('',(-4.85024876221778E-15,188.463925132475,50.3947132708409));
#621=CARTESIAN_POINT('Origin',(0.,169.742408365943,90.));
#622=CARTESIAN_POINT('Origin',(0.,164.932268966109,90.));
#623=CARTESIAN_POINT('',(-6.25914926185286E-15,164.931941969858,38.8901676286524));
#624=CARTESIAN_POINT('Origin',(-5.03450246336039E-15,164.932268966109,48.8901676233049));
#625=CARTESIAN_POINT('Origin',(0.,164.931941969858,90.));
#626=CARTESIAN_POINT('Origin',(0.,82.5960394502802,90.));
#627=CARTESIAN_POINT('',(-6.25881954368652E-15,82.5960394502802,38.8928599817992));
#628=CARTESIAN_POINT('',(-6.25848982552019E-15,0.260136930702739,38.8955523349459));
#629=CARTESIAN_POINT('',(-6.25881954368652E-15,82.5960394502802,38.8928599817992));
#630=CARTESIAN_POINT('Origin',(0.,0.260136930702721,90.));
#631=CARTESIAN_POINT('Origin',(0.,0.259973432577176,90.));
#632=CARTESIAN_POINT('',(-7.4831366240128E-15,0.259809934451636,28.8955523402923));
#633=CARTESIAN_POINT('',(-6.8708132247665E-15,0.259973432577176,33.8955523376191));
#634=CARTESIAN_POINT('Origin',(0.,0.259809934451631,90.));
#635=CARTESIAN_POINT('Origin',(0.,82.5957124540291,90.));
#636=CARTESIAN_POINT('',(-7.48379606034548E-15,164.931614973607,28.8901676339987));
#637=CARTESIAN_POINT('Origin',(0.,164.931614973607,90.));
#638=CARTESIAN_POINT('',(-7.48346634217914E-15,82.5957124540291,28.8928599871455));
#639=CARTESIAN_POINT('',(-7.48346634217914E-15,82.5957124540291,28.8928599871455));
#640=CARTESIAN_POINT('Origin',(0.,164.932268966109,90.));
#641=CARTESIAN_POINT('',(-7.18182986934124E-15,174.552547765777,31.3559087049302));
#642=CARTESIAN_POINT('Origin',(0.,174.552547765777,90.));
#643=CARTESIAN_POINT('Origin',(-5.03450246336039E-15,164.932268966109,48.8901676233049));
#644=CARTESIAN_POINT('Origin',(0.,193.27406453231,90.));
#645=CARTESIAN_POINT('',(-4.66599506107531E-15,211.995581298842,51.8992589183758));
#646=CARTESIAN_POINT('Origin',(0.,211.995581298842,90.));
#647=CARTESIAN_POINT('',(-5.92391246520827E-15,193.27406453231,41.627583811653));
#648=CARTESIAN_POINT('Origin',(0.,221.615860098511,90.));
#649=CARTESIAN_POINT('',(-4.470070997826E-15,227.437046020861,53.4991003043633));
#650=CARTESIAN_POINT('Origin',(-6.8133224670563E-15,221.615860098511,34.365));
#651=CARTESIAN_POINT('',(0.,227.437046020861,126.500899695637));
#652=CARTESIAN_POINT('Origin',(0.,227.437046020861,90.));
#653=CARTESIAN_POINT('Origin',(0.,227.437046020861,90.));
#654=CARTESIAN_POINT('Ctrl Pts',(0.,315.353209497719,147.87));
#655=CARTESIAN_POINT('Ctrl Pts',(57.87,315.353209497719,147.87));
#656=CARTESIAN_POINT('Ctrl Pts',(57.87,315.353209497719,90.));
#657=CARTESIAN_POINT('Ctrl Pts',(57.87,315.353209497719,32.13));
#658=CARTESIAN_POINT('Ctrl Pts',(0.,315.353209497719,32.13));
#659=CARTESIAN_POINT('Ctrl Pts',(-57.87,315.353209497719,32.13));
#660=CARTESIAN_POINT('Ctrl Pts',(-57.87,315.353209497719,90.));
#661=CARTESIAN_POINT('Ctrl Pts',(-57.87,315.353209497719,147.87));
#662=CARTESIAN_POINT('Ctrl Pts',(0.,315.353209497719,147.87));
#663=CARTESIAN_POINT('Ctrl Pts',(0.,313.720342284777,147.856391677517));
#664=CARTESIAN_POINT('Ctrl Pts',(57.8563916775168,313.720342284777,147.856391677517));
#665=CARTESIAN_POINT('Ctrl Pts',(57.8563916775168,313.720342284777,90.));
#666=CARTESIAN_POINT('Ctrl Pts',(57.8563916775168,313.720342284777,32.1436083224832));
#667=CARTESIAN_POINT('Ctrl Pts',(0.,313.720342284777,32.1436083224832));
#668=CARTESIAN_POINT('Ctrl Pts',(-57.8563916775168,313.720342284777,32.1436083224832));
#669=CARTESIAN_POINT('Ctrl Pts',(-57.8563916775168,313.720342284777,90.));
#670=CARTESIAN_POINT('Ctrl Pts',(-57.8563916775168,313.720342284777,147.856391677517));
#671=CARTESIAN_POINT('Ctrl Pts',(0.,313.720342284777,147.856391677517));
#672=CARTESIAN_POINT('Ctrl Pts',(0.,310.448879000363,147.7840759167));
#673=CARTESIAN_POINT('Ctrl Pts',(57.7840759167003,310.448879000363,147.7840759167));
#674=CARTESIAN_POINT('Ctrl Pts',(57.7840759167004,310.448879000363,90.));
#675=CARTESIAN_POINT('Ctrl Pts',(57.7840759167003,310.448879000363,32.2159240832997));
#676=CARTESIAN_POINT('Ctrl Pts',(0.,310.448879000363,32.2159240832996));
#677=CARTESIAN_POINT('Ctrl Pts',(-57.7840759167003,310.448879000363,32.2159240832997));
#678=CARTESIAN_POINT('Ctrl Pts',(-57.7840759167004,310.448879000363,90.));
#679=CARTESIAN_POINT('Ctrl Pts',(-57.7840759167003,310.448879000363,147.7840759167));
#680=CARTESIAN_POINT('Ctrl Pts',(0.,310.448879000363,147.7840759167));
#681=CARTESIAN_POINT('Ctrl Pts',(0.,305.524498738544,147.540299481146));
#682=CARTESIAN_POINT('Ctrl Pts',(57.5402994811464,305.524498738544,147.540299481146));
#683=CARTESIAN_POINT('Ctrl Pts',(57.5402994811464,305.524498738544,90.));
#684=CARTESIAN_POINT('Ctrl Pts',(57.5402994811464,305.524498738544,32.4597005188536));
#685=CARTESIAN_POINT('Ctrl Pts',(0.,305.524498738544,32.4597005188536));
#686=CARTESIAN_POINT('Ctrl Pts',(-57.5402994811464,305.524498738544,32.4597005188536));
#687=CARTESIAN_POINT('Ctrl Pts',(-57.5402994811464,305.524498738544,90.));
#688=CARTESIAN_POINT('Ctrl Pts',(-57.5402994811464,305.524498738544,147.540299481146));
#689=CARTESIAN_POINT('Ctrl Pts',(0.,305.524498738544,147.540299481146));
#690=CARTESIAN_POINT('Ctrl Pts',(0.,298.923712115864,146.940253066646));
#691=CARTESIAN_POINT('Ctrl Pts',(56.9402530666457,298.923712115864,146.940253066646));
#692=CARTESIAN_POINT('Ctrl Pts',(56.9402530666457,298.923712115864,90.));
#693=CARTESIAN_POINT('Ctrl Pts',(56.9402530666457,298.923712115864,33.0597469333543));
#694=CARTESIAN_POINT('Ctrl Pts',(0.,298.923712115864,33.0597469333543));
#695=CARTESIAN_POINT('Ctrl Pts',(-56.9402530666457,298.923712115864,33.0597469333543));
#696=CARTESIAN_POINT('Ctrl Pts',(-56.9402530666457,298.923712115864,90.));
#697=CARTESIAN_POINT('Ctrl Pts',(-56.9402530666457,298.923712115864,146.940253066646));
#698=CARTESIAN_POINT('Ctrl Pts',(0.,298.923712115864,146.940253066646));
#699=CARTESIAN_POINT('Ctrl Pts',(0.,290.60671950441,145.707578232082));
#700=CARTESIAN_POINT('Ctrl Pts',(55.7075782320819,290.60671950441,145.707578232082));
#701=CARTESIAN_POINT('Ctrl Pts',(55.7075782320819,290.60671950441,90.));
#702=CARTESIAN_POINT('Ctrl Pts',(55.7075782320819,290.60671950441,34.2924217679181));
#703=CARTESIAN_POINT('Ctrl Pts',(0.,290.60671950441,34.2924217679181));
#704=CARTESIAN_POINT('Ctrl Pts',(-55.7075782320819,290.60671950441,34.2924217679181));
#705=CARTESIAN_POINT('Ctrl Pts',(-55.7075782320819,290.60671950441,90.));
#706=CARTESIAN_POINT('Ctrl Pts',(-55.7075782320819,290.60671950441,145.707578232082));
#707=CARTESIAN_POINT('Ctrl Pts',(0.,290.60671950441,145.707578232082));
#708=CARTESIAN_POINT('Ctrl Pts',(0.,282.206425351397,143.970963017358));
#709=CARTESIAN_POINT('Ctrl Pts',(53.970963017358,282.206425351397,143.970963017358));
#710=CARTESIAN_POINT('Ctrl Pts',(53.970963017358,282.206425351397,90.));
#711=CARTESIAN_POINT('Ctrl Pts',(53.970963017358,282.206425351397,36.029036982642));
#712=CARTESIAN_POINT('Ctrl Pts',(0.,282.206425351397,36.029036982642));
#713=CARTESIAN_POINT('Ctrl Pts',(-53.970963017358,282.206425351397,36.029036982642));
#714=CARTESIAN_POINT('Ctrl Pts',(-53.970963017358,282.206425351397,90.));
#715=CARTESIAN_POINT('Ctrl Pts',(-53.970963017358,282.206425351397,143.970963017358));
#716=CARTESIAN_POINT('Ctrl Pts',(0.,282.206425351397,143.970963017358));
#717=CARTESIAN_POINT('Ctrl Pts',(0.,273.693531831142,141.729959011347));
#718=CARTESIAN_POINT('Ctrl Pts',(51.729959011347,273.693531831142,141.729959011347));
#719=CARTESIAN_POINT('Ctrl Pts',(51.729959011347,273.693531831142,90.));
#720=CARTESIAN_POINT('Ctrl Pts',(51.729959011347,273.693531831142,38.270040988653));
#721=CARTESIAN_POINT('Ctrl Pts',(0.,273.693531831142,38.270040988653));
#722=CARTESIAN_POINT('Ctrl Pts',(-51.729959011347,273.693531831142,38.270040988653));
#723=CARTESIAN_POINT('Ctrl Pts',(-51.729959011347,273.693531831142,90.));
#724=CARTESIAN_POINT('Ctrl Pts',(-51.729959011347,273.693531831142,141.729959011347));
#725=CARTESIAN_POINT('Ctrl Pts',(0.,273.693531831142,141.729959011347));
#726=CARTESIAN_POINT('Ctrl Pts',(0.,265.023969426193,139.04052512915));
#727=CARTESIAN_POINT('Ctrl Pts',(49.0405251291505,265.023969426193,139.04052512915));
#728=CARTESIAN_POINT('Ctrl Pts',(49.0405251291505,265.023969426193,90.));
#729=CARTESIAN_POINT('Ctrl Pts',(49.0405251291505,265.023969426193,40.9594748708495));
#730=CARTESIAN_POINT('Ctrl Pts',(0.,265.023969426193,40.9594748708495));
#731=CARTESIAN_POINT('Ctrl Pts',(-49.0405251291505,265.023969426193,40.9594748708495));
#732=CARTESIAN_POINT('Ctrl Pts',(-49.0405251291505,265.023969426193,90.));
#733=CARTESIAN_POINT('Ctrl Pts',(-49.0405251291505,265.023969426193,139.04052512915));
#734=CARTESIAN_POINT('Ctrl Pts',(0.,265.023969426193,139.04052512915));
#735=CARTESIAN_POINT('Ctrl Pts',(0.,256.139258815875,136.027173674235));
#736=CARTESIAN_POINT('Ctrl Pts',(46.0271736742348,256.139258815875,136.027173674235));
#737=CARTESIAN_POINT('Ctrl Pts',(46.0271736742348,256.139258815875,90.));
#738=CARTESIAN_POINT('Ctrl Pts',(46.0271736742348,256.139258815875,43.9728263257652));
#739=CARTESIAN_POINT('Ctrl Pts',(0.,256.139258815875,43.9728263257652));
#740=CARTESIAN_POINT('Ctrl Pts',(-46.0271736742348,256.139258815875,43.9728263257652));
#741=CARTESIAN_POINT('Ctrl Pts',(-46.0271736742348,256.139258815875,90.));
#742=CARTESIAN_POINT('Ctrl Pts',(-46.0271736742348,256.139258815875,136.027173674235));
#743=CARTESIAN_POINT('Ctrl Pts',(0.,256.139258815875,136.027173674235));
#744=CARTESIAN_POINT('Ctrl Pts',(0.,246.973106755478,132.837330709359));
#745=CARTESIAN_POINT('Ctrl Pts',(42.8373307093586,246.973106755478,132.837330709359));
#746=CARTESIAN_POINT('Ctrl Pts',(42.8373307093586,246.973106755478,90.));
#747=CARTESIAN_POINT('Ctrl Pts',(42.8373307093586,246.973106755478,47.1626692906414));
#748=CARTESIAN_POINT('Ctrl Pts',(0.,246.973106755478,47.1626692906414));
#749=CARTESIAN_POINT('Ctrl Pts',(-42.8373307093586,246.973106755478,47.1626692906414));
#750=CARTESIAN_POINT('Ctrl Pts',(-42.8373307093586,246.973106755478,90.));
#751=CARTESIAN_POINT('Ctrl Pts',(-42.8373307093586,246.973106755478,132.837330709359));
#752=CARTESIAN_POINT('Ctrl Pts',(0.,246.973106755478,132.837330709359));
#753=CARTESIAN_POINT('Ctrl Pts',(0.,239.362063884004,130.259389810506));
#754=CARTESIAN_POINT('Ctrl Pts',(40.2593898105061,239.362063884004,130.259389810506));
#755=CARTESIAN_POINT('Ctrl Pts',(40.2593898105061,239.362063884004,90.));
#756=CARTESIAN_POINT('Ctrl Pts',(40.2593898105061,239.362063884004,49.7406101894939));
#757=CARTESIAN_POINT('Ctrl Pts',(0.,239.362063884004,49.7406101894939));
#758=CARTESIAN_POINT('Ctrl Pts',(-40.2593898105061,239.362063884004,49.7406101894939));
#759=CARTESIAN_POINT('Ctrl Pts',(-40.2593898105061,239.362063884004,90.));
#760=CARTESIAN_POINT('Ctrl Pts',(-40.2593898105061,239.362063884004,130.259389810506));
#761=CARTESIAN_POINT('Ctrl Pts',(0.,239.362063884004,130.259389810506));
#762=CARTESIAN_POINT('Ctrl Pts',(0.,233.472902729652,128.360927493005));
#763=CARTESIAN_POINT('Ctrl Pts',(38.360927493005,233.472902729652,128.360927493005));
#764=CARTESIAN_POINT('Ctrl Pts',(38.360927493005,233.472902729652,90.));
#765=CARTESIAN_POINT('Ctrl Pts',(38.360927493005,233.472902729652,51.6390725069951));
#766=CARTESIAN_POINT('Ctrl Pts',(0.,233.472902729652,51.639072506995));
#767=CARTESIAN_POINT('Ctrl Pts',(-38.360927493005,233.472902729652,51.6390725069951));
#768=CARTESIAN_POINT('Ctrl Pts',(-38.360927493005,233.472902729652,90.));
#769=CARTESIAN_POINT('Ctrl Pts',(-38.360927493005,233.472902729652,128.360927493005));
#770=CARTESIAN_POINT('Ctrl Pts',(0.,233.472902729652,128.360927493005));
#771=CARTESIAN_POINT('Ctrl Pts',(0.,229.462969919176,127.117248491192));
#772=CARTESIAN_POINT('Ctrl Pts',(37.1172484911919,229.462969919176,127.117248491192));
#773=CARTESIAN_POINT('Ctrl Pts',(37.1172484911919,229.462969919176,90.));
#774=CARTESIAN_POINT('Ctrl Pts',(37.1172484911919,229.462969919176,52.8827515088081));
#775=CARTESIAN_POINT('Ctrl Pts',(0.,229.462969919176,52.8827515088081));
#776=CARTESIAN_POINT('Ctrl Pts',(-37.1172484911919,229.462969919176,52.8827515088081));
#777=CARTESIAN_POINT('Ctrl Pts',(-37.1172484911919,229.462969919176,90.));
#778=CARTESIAN_POINT('Ctrl Pts',(-37.1172484911919,229.462969919176,127.117248491192));
#779=CARTESIAN_POINT('Ctrl Pts',(0.,229.462969919176,127.117248491192));
#780=CARTESIAN_POINT('Ctrl Pts',(0.,227.437046020861,126.500899695637));
#781=CARTESIAN_POINT('Ctrl Pts',(36.5008996956366,227.437046020861,126.500899695637));
#782=CARTESIAN_POINT('Ctrl Pts',(36.5008996956366,227.437046020861,90.));
#783=CARTESIAN_POINT('Ctrl Pts',(36.5008996956366,227.437046020861,53.4991003043634));
#784=CARTESIAN_POINT('Ctrl Pts',(0.,227.437046020861,53.4991003043634));
#785=CARTESIAN_POINT('Ctrl Pts',(-36.5008996956366,227.437046020861,53.4991003043634));
#786=CARTESIAN_POINT('Ctrl Pts',(-36.5008996956366,227.437046020861,90.));
#787=CARTESIAN_POINT('Ctrl Pts',(-36.5008996956366,227.437046020861,126.500899695637));
#788=CARTESIAN_POINT('Ctrl Pts',(0.,227.437046020861,126.500899695637));
#789=CARTESIAN_POINT('',(0.,315.353209497719,147.87));
#790=CARTESIAN_POINT('Ctrl Pts',(0.,227.437046020861,126.500899695637));
#791=CARTESIAN_POINT('Ctrl Pts',(0.,229.462969919176,127.117248491192));
#792=CARTESIAN_POINT('Ctrl Pts',(0.,233.472902729652,128.360927493005));
#793=CARTESIAN_POINT('Ctrl Pts',(0.,239.362063884004,130.259389810506));
#794=CARTESIAN_POINT('Ctrl Pts',(0.,246.973106755478,132.837330709359));
#795=CARTESIAN_POINT('Ctrl Pts',(0.,256.139258815875,136.027173674235));
#796=CARTESIAN_POINT('Ctrl Pts',(0.,265.023969426193,139.04052512915));
#797=CARTESIAN_POINT('Ctrl Pts',(0.,273.693531831142,141.729959011347));
#798=CARTESIAN_POINT('Ctrl Pts',(0.,282.206425351397,143.970963017358));
#799=CARTESIAN_POINT('Ctrl Pts',(0.,290.60671950441,145.707578232082));
#800=CARTESIAN_POINT('Ctrl Pts',(0.,298.923712115864,146.940253066646));
#801=CARTESIAN_POINT('Ctrl Pts',(0.,305.524498738544,147.540299481146));
#802=CARTESIAN_POINT('Ctrl Pts',(0.,310.448879000363,147.7840759167));
#803=CARTESIAN_POINT('Ctrl Pts',(0.,313.720342284777,147.856391677517));
#804=CARTESIAN_POINT('Ctrl Pts',(0.,315.353209497719,147.87));
#805=CARTESIAN_POINT('',(-7.08703102666573E-15,315.353209497719,32.13));
#806=CARTESIAN_POINT('Origin',(0.,315.353209497719,90.));
#807=CARTESIAN_POINT('Origin',(0.,315.353209497719,90.));
#808=CARTESIAN_POINT('Origin',(0.,315.39487807252,90.));
#809=CARTESIAN_POINT('',(0.,315.43654664732,137.870347260055));
#810=CARTESIAN_POINT('',(-5.86242675460982E-15,315.436546647321,42.1296527399453));
#811=CARTESIAN_POINT('Origin',(0.,315.43654664732,90.));
#812=CARTESIAN_POINT('Origin',(0.,315.43654664732,90.));
#813=CARTESIAN_POINT('',(-6.47472889063778E-15,315.39487807252,37.1298263699727));
#814=CARTESIAN_POINT('Ctrl Pts',(0.,230.347638982035,116.933849543455));
#815=CARTESIAN_POINT('Ctrl Pts',(26.933849543455,230.347638982035,116.933849543455));
#816=CARTESIAN_POINT('Ctrl Pts',(26.933849543455,230.347638982035,90.));
#817=CARTESIAN_POINT('Ctrl Pts',(26.933849543455,230.347638982035,63.066150456545));
#818=CARTESIAN_POINT('Ctrl Pts',(0.,230.347638982035,63.066150456545));
#819=CARTESIAN_POINT('Ctrl Pts',(-26.933849543455,230.347638982035,63.066150456545));
#820=CARTESIAN_POINT('Ctrl Pts',(-26.933849543455,230.347638982035,90.));
#821=CARTESIAN_POINT('Ctrl Pts',(-26.933849543455,230.347638982035,116.933849543455));
#822=CARTESIAN_POINT('Ctrl Pts',(0.,230.347638982035,116.933849543455));
#823=CARTESIAN_POINT('Ctrl Pts',(0.,239.57454316127,119.740959564864));
#824=CARTESIAN_POINT('Ctrl Pts',(29.7409595648644,239.57454316127,119.740959564864));
#825=CARTESIAN_POINT('Ctrl Pts',(29.7409595648644,239.57454316127,90.));
#826=CARTESIAN_POINT('Ctrl Pts',(29.7409595648644,239.57454316127,60.2590404351356));
#827=CARTESIAN_POINT('Ctrl Pts',(0.,239.57454316127,60.2590404351356));
#828=CARTESIAN_POINT('Ctrl Pts',(-29.7409595648644,239.57454316127,60.2590404351356));
#829=CARTESIAN_POINT('Ctrl Pts',(-29.7409595648644,239.57454316127,90.));
#830=CARTESIAN_POINT('Ctrl Pts',(-29.7409595648644,239.57454316127,119.740959564864));
#831=CARTESIAN_POINT('Ctrl Pts',(0.,239.57454316127,119.740959564864));
#832=CARTESIAN_POINT('Ctrl Pts',(0.,248.277710215784,122.730066913859));
#833=CARTESIAN_POINT('Ctrl Pts',(32.7300669138591,248.277710215784,122.730066913859));
#834=CARTESIAN_POINT('Ctrl Pts',(32.7300669138591,248.277710215784,90.));
#835=CARTESIAN_POINT('Ctrl Pts',(32.7300669138591,248.277710215784,57.2699330861409));
#836=CARTESIAN_POINT('Ctrl Pts',(0.,248.277710215784,57.2699330861409));
#837=CARTESIAN_POINT('Ctrl Pts',(-32.7300669138591,248.277710215784,57.2699330861409));
#838=CARTESIAN_POINT('Ctrl Pts',(-32.7300669138591,248.277710215784,90.));
#839=CARTESIAN_POINT('Ctrl Pts',(-32.7300669138591,248.277710215784,122.730066913859));
#840=CARTESIAN_POINT('Ctrl Pts',(0.,248.277710215784,122.730066913859));
#841=CARTESIAN_POINT('Ctrl Pts',(0.,256.402516239503,125.524953646174));
#842=CARTESIAN_POINT('Ctrl Pts',(35.5249536461738,256.402516239503,125.524953646174));
#843=CARTESIAN_POINT('Ctrl Pts',(35.5249536461738,256.402516239503,90.));
#844=CARTESIAN_POINT('Ctrl Pts',(35.5249536461738,256.402516239503,54.4750463538262));
#845=CARTESIAN_POINT('Ctrl Pts',(0.,256.402516239503,54.4750463538262));
#846=CARTESIAN_POINT('Ctrl Pts',(-35.5249536461738,256.402516239503,54.4750463538262));
#847=CARTESIAN_POINT('Ctrl Pts',(-35.5249536461738,256.402516239503,90.));
#848=CARTESIAN_POINT('Ctrl Pts',(-35.5249536461738,256.402516239503,125.524953646174));
#849=CARTESIAN_POINT('Ctrl Pts',(0.,256.402516239503,125.524953646174));
#850=CARTESIAN_POINT('Ctrl Pts',(0.,264.708206442613,128.382063500073));
#851=CARTESIAN_POINT('Ctrl Pts',(38.3820635000735,264.708206442613,128.382063500073));
#852=CARTESIAN_POINT('Ctrl Pts',(38.3820635000735,264.708206442613,90.));
#853=CARTESIAN_POINT('Ctrl Pts',(38.3820635000735,264.708206442613,51.6179364999265));
#854=CARTESIAN_POINT('Ctrl Pts',(0.,264.708206442613,51.6179364999265));
#855=CARTESIAN_POINT('Ctrl Pts',(-38.3820635000735,264.708206442613,51.6179364999265));
#856=CARTESIAN_POINT('Ctrl Pts',(-38.3820635000735,264.708206442613,90.));
#857=CARTESIAN_POINT('Ctrl Pts',(-38.3820635000735,264.708206442613,128.382063500073));
#858=CARTESIAN_POINT('Ctrl Pts',(0.,264.708206442613,128.382063500073));
#859=CARTESIAN_POINT('Ctrl Pts',(0.,272.418374744452,130.978949570876));
#860=CARTESIAN_POINT('Ctrl Pts',(40.9789495708755,272.418374744452,130.978949570876));
#861=CARTESIAN_POINT('Ctrl Pts',(40.9789495708755,272.418374744452,90.));
#862=CARTESIAN_POINT('Ctrl Pts',(40.9789495708755,272.418374744452,49.0210504291245));
#863=CARTESIAN_POINT('Ctrl Pts',(0.,272.418374744452,49.0210504291245));
#864=CARTESIAN_POINT('Ctrl Pts',(-40.9789495708755,272.418374744452,49.0210504291245));
#865=CARTESIAN_POINT('Ctrl Pts',(-40.9789495708755,272.418374744452,90.));
#866=CARTESIAN_POINT('Ctrl Pts',(-40.9789495708755,272.418374744452,130.978949570876));
#867=CARTESIAN_POINT('Ctrl Pts',(0.,272.418374744452,130.978949570876));
#868=CARTESIAN_POINT('Ctrl Pts',(0.,279.78984945451,132.938709315179));
#869=CARTESIAN_POINT('Ctrl Pts',(42.9387093151795,279.78984945451,132.938709315179));
#870=CARTESIAN_POINT('Ctrl Pts',(42.9387093151795,279.78984945451,90.));
#871=CARTESIAN_POINT('Ctrl Pts',(42.9387093151795,279.78984945451,47.0612906848205));
#872=CARTESIAN_POINT('Ctrl Pts',(0.,279.78984945451,47.0612906848205));
#873=CARTESIAN_POINT('Ctrl Pts',(-42.9387093151795,279.78984945451,47.0612906848205));
#874=CARTESIAN_POINT('Ctrl Pts',(-42.9387093151795,279.78984945451,90.));
#875=CARTESIAN_POINT('Ctrl Pts',(-42.9387093151795,279.78984945451,132.938709315179));
#876=CARTESIAN_POINT('Ctrl Pts',(0.,279.78984945451,132.938709315179));
#877=CARTESIAN_POINT('Ctrl Pts',(0.,288.205484636899,135.176066655725));
#878=CARTESIAN_POINT('Ctrl Pts',(45.1760666557251,288.205484636899,135.176066655725));
#879=CARTESIAN_POINT('Ctrl Pts',(45.1760666557252,288.205484636899,90.));
#880=CARTESIAN_POINT('Ctrl Pts',(45.1760666557251,288.205484636899,44.8239333442749));
#881=CARTESIAN_POINT('Ctrl Pts',(0.,288.205484636899,44.8239333442748));
#882=CARTESIAN_POINT('Ctrl Pts',(-45.1760666557251,288.205484636899,44.8239333442749));
#883=CARTESIAN_POINT('Ctrl Pts',(-45.1760666557252,288.205484636899,90.));
#884=CARTESIAN_POINT('Ctrl Pts',(-45.1760666557251,288.205484636899,135.176066655725));
#885=CARTESIAN_POINT('Ctrl Pts',(0.,288.205484636899,135.176066655725));
#886=CARTESIAN_POINT('Ctrl Pts',(0.,296.261413176666,136.613072692234));
#887=CARTESIAN_POINT('Ctrl Pts',(46.6130726922338,296.261413176666,136.613072692234));
#888=CARTESIAN_POINT('Ctrl Pts',(46.6130726922338,296.261413176666,90.));
#889=CARTESIAN_POINT('Ctrl Pts',(46.6130726922338,296.261413176666,43.3869273077662));
#890=CARTESIAN_POINT('Ctrl Pts',(0.,296.261413176666,43.3869273077662));
#891=CARTESIAN_POINT('Ctrl Pts',(-46.6130726922338,296.261413176666,43.3869273077662));
#892=CARTESIAN_POINT('Ctrl Pts',(-46.6130726922338,296.261413176666,90.));
#893=CARTESIAN_POINT('Ctrl Pts',(-46.6130726922338,296.261413176666,136.613072692234));
#894=CARTESIAN_POINT('Ctrl Pts',(0.,296.261413176666,136.613072692234));
#895=CARTESIAN_POINT('Ctrl Pts',(0.,304.278138287546,137.327463772044));
#896=CARTESIAN_POINT('Ctrl Pts',(47.3274637720439,304.278138287546,137.327463772044));
#897=CARTESIAN_POINT('Ctrl Pts',(47.3274637720439,304.278138287546,90.));
#898=CARTESIAN_POINT('Ctrl Pts',(47.3274637720439,304.278138287546,42.6725362279561));
#899=CARTESIAN_POINT('Ctrl Pts',(0.,304.278138287546,42.6725362279561));
#900=CARTESIAN_POINT('Ctrl Pts',(-47.3274637720439,304.278138287546,42.6725362279561));
#901=CARTESIAN_POINT('Ctrl Pts',(-47.3274637720439,304.278138287546,90.));
#902=CARTESIAN_POINT('Ctrl Pts',(-47.3274637720439,304.278138287546,137.327463772044));
#903=CARTESIAN_POINT('Ctrl Pts',(0.,304.278138287546,137.327463772044));
#904=CARTESIAN_POINT('Ctrl Pts',(0.,308.016588151442,137.660606694889));
#905=CARTESIAN_POINT('Ctrl Pts',(47.660606694889,308.016588151442,137.660606694889));
#906=CARTESIAN_POINT('Ctrl Pts',(47.660606694889,308.016588151442,90.));
#907=CARTESIAN_POINT('Ctrl Pts',(47.660606694889,308.016588151442,42.339393305111));
#908=CARTESIAN_POINT('Ctrl Pts',(0.,308.016588151442,42.339393305111));
#909=CARTESIAN_POINT('Ctrl Pts',(-47.660606694889,308.016588151442,42.339393305111));
#910=CARTESIAN_POINT('Ctrl Pts',(-47.660606694889,308.016588151442,90.));
#911=CARTESIAN_POINT('Ctrl Pts',(-47.660606694889,308.016588151442,137.660606694889));
#912=CARTESIAN_POINT('Ctrl Pts',(0.,308.016588151442,137.660606694889));
#913=CARTESIAN_POINT('Ctrl Pts',(0.,311.737611214143,137.839520316002));
#914=CARTESIAN_POINT('Ctrl Pts',(47.8395203160018,311.737611214143,137.839520316002));
#915=CARTESIAN_POINT('Ctrl Pts',(47.8395203160018,311.737611214143,90.));
#916=CARTESIAN_POINT('Ctrl Pts',(47.8395203160018,311.737611214143,42.1604796839982));
#917=CARTESIAN_POINT('Ctrl Pts',(0.,311.737611214143,42.1604796839982));
#918=CARTESIAN_POINT('Ctrl Pts',(-47.8395203160018,311.737611214143,42.1604796839982));
#919=CARTESIAN_POINT('Ctrl Pts',(-47.8395203160018,311.737611214143,90.));
#920=CARTESIAN_POINT('Ctrl Pts',(-47.8395203160018,311.737611214143,137.839520316002));
#921=CARTESIAN_POINT('Ctrl Pts',(0.,311.737611214143,137.839520316002));
#922=CARTESIAN_POINT('Ctrl Pts',(0.,315.43654664732,137.870347260055));
#923=CARTESIAN_POINT('Ctrl Pts',(47.8703472600547,315.43654664732,137.870347260055));
#924=CARTESIAN_POINT('Ctrl Pts',(47.8703472600547,315.43654664732,90.));
#925=CARTESIAN_POINT('Ctrl Pts',(47.8703472600547,315.43654664732,42.1296527399453));
#926=CARTESIAN_POINT('Ctrl Pts',(0.,315.43654664732,42.1296527399453));
#927=CARTESIAN_POINT('Ctrl Pts',(-47.8703472600547,315.43654664732,42.1296527399453));
#928=CARTESIAN_POINT('Ctrl Pts',(-47.8703472600547,315.43654664732,90.));
#929=CARTESIAN_POINT('Ctrl Pts',(-47.8703472600547,315.43654664732,137.870347260055));
#930=CARTESIAN_POINT('Ctrl Pts',(0.,315.43654664732,137.870347260055));
#931=CARTESIAN_POINT('',(0.,230.347638982035,116.933849543455));
#932=CARTESIAN_POINT('Ctrl Pts',(0.,230.347638982035,116.933849543455));
#933=CARTESIAN_POINT('Ctrl Pts',(0.,239.57454316127,119.740959564864));
#934=CARTESIAN_POINT('Ctrl Pts',(0.,248.277710215784,122.730066913859));
#935=CARTESIAN_POINT('Ctrl Pts',(0.,256.402516239503,125.524953646174));
#936=CARTESIAN_POINT('Ctrl Pts',(0.,264.708206442613,128.382063500073));
#937=CARTESIAN_POINT('Ctrl Pts',(0.,272.418374744452,130.978949570876));
#938=CARTESIAN_POINT('Ctrl Pts',(0.,279.78984945451,132.938709315179));
#939=CARTESIAN_POINT('Ctrl Pts',(0.,288.205484636899,135.176066655725));
#940=CARTESIAN_POINT('Ctrl Pts',(0.,296.261413176666,136.613072692234));
#941=CARTESIAN_POINT('Ctrl Pts',(0.,304.278138287546,137.327463772044));
#942=CARTESIAN_POINT('Ctrl Pts',(0.,308.016588151442,137.660606694889));
#943=CARTESIAN_POINT('Ctrl Pts',(0.,311.737611214143,137.839520316002));
#944=CARTESIAN_POINT('Ctrl Pts',(0.,315.43654664732,137.870347260055));
#945=CARTESIAN_POINT('',(-3.29844526321085E-15,230.347638982035,63.066150456545));
#946=CARTESIAN_POINT('Origin',(0.,230.347638982035,90.));
#947=CARTESIAN_POINT('Origin',(0.,230.347638982035,90.));
#948=CARTESIAN_POINT('Origin',(0.,221.615860098511,90.));
#949=CARTESIAN_POINT('Origin',(-6.8133224670563E-15,221.615860098511,34.365));
#950=UNCERTAINTY_MEASURE_WITH_UNIT(LENGTH_MEASURE(0.01),#954,
'DISTANCE_ACCURACY_VALUE',
'Maximum model space distance between geometric entities at asserted c
onnectivities');
#951=UNCERTAINTY_MEASURE_WITH_UNIT(LENGTH_MEASURE(0.01),#954,
'DISTANCE_ACCURACY_VALUE',
'Maximum model space distance between geometric entities at asserted c
onnectivities');
#952=(
GEOMETRIC_REPRESENTATION_CONTEXT(3)
GLOBAL_UNCERTAINTY_ASSIGNED_CONTEXT((#950))
GLOBAL_UNIT_ASSIGNED_CONTEXT((#954,#956,#957))
REPRESENTATION_CONTEXT('','3D')
);
#953=(
GEOMETRIC_REPRESENTATION_CONTEXT(3)
GLOBAL_UNCERTAINTY_ASSIGNED_CONTEXT((#951))
GLOBAL_UNIT_ASSIGNED_CONTEXT((#954,#956,#957))
REPRESENTATION_CONTEXT('','3D')
);
#954=(
LENGTH_UNIT()
NAMED_UNIT(*)
SI_UNIT(.MILLI.,.METRE.)
);
#955=(
LENGTH_UNIT()
NAMED_UNIT(*)
SI_UNIT($,.METRE.)
);
#956=(
NAMED_UNIT(*)
PLANE_ANGLE_UNIT()
SI_UNIT($,.RADIAN.)
);
#957=(
NAMED_UNIT(*)
SI_UNIT($,.STERADIAN.)
SOLID_ANGLE_UNIT()
);
#958=SHAPE_DEFINITION_REPRESENTATION(#959,#960);
#959=PRODUCT_DEFINITION_SHAPE('',$,#962);
#960=SHAPE_REPRESENTATION('',(#335),#952);
#961=PRODUCT_DEFINITION_CONTEXT('part definition',#966,'design');
#962=PRODUCT_DEFINITION('CCC- rocket cd nozzle',
'CCC- rocket cd nozzle v3',#963,#961);
#963=PRODUCT_DEFINITION_FORMATION('',$,#968);
#964=PRODUCT_RELATED_PRODUCT_CATEGORY('CCC- rocket cd nozzle v3',
'CCC- rocket cd nozzle v3',(#968));
#965=APPLICATION_PROTOCOL_DEFINITION('international standard',
'automotive_design',2009,#966);
#966=APPLICATION_CONTEXT(
'Core Data for Automotive Mechanical Design Process');
#967=PRODUCT_CONTEXT('part definition',#966,'mechanical');
#968=PRODUCT('CCC- rocket cd nozzle','CCC- rocket cd nozzle v3',$,(#967));
#969=PRESENTATION_STYLE_ASSIGNMENT((#971));
#970=PRESENTATION_STYLE_ASSIGNMENT((#972));
#971=SURFACE_STYLE_USAGE(.BOTH.,#973);
#972=SURFACE_STYLE_USAGE(.BOTH.,#974);
#973=SURFACE_SIDE_STYLE('',(#975));
#974=SURFACE_SIDE_STYLE('',(#976));
#975=SURFACE_STYLE_FILL_AREA(#977);
#976=SURFACE_STYLE_FILL_AREA(#978);
#977=FILL_AREA_STYLE('Steel - Satin',(#979));
#978=FILL_AREA_STYLE('Paint - Enamel Glossy (Dark Grey)',(#980));
#979=FILL_AREA_STYLE_COLOUR('Steel - Satin',#981);
#980=FILL_AREA_STYLE_COLOUR('Paint - Enamel Glossy (Dark Grey)',#982);
#981=COLOUR_RGB('Steel - Satin',0.627450980392157,0.627450980392157,0.627450980392157);
#982=COLOUR_RGB('Paint - Enamel Glossy (Dark Grey)',0.349019607843137,0.349019607843137,
0.349019607843137);
ENDSEC;
END-ISO-10303-21;
